<?xml version="1.0" standalone="no"?>
<!DOCTYPE svg PUBLIC "-//W3C//DTD SVG 20010904//EN"
 "http://www.w3.org/TR/2001/REC-SVG-20010904/DTD/svg10.dtd">
<svg version="1.0" xmlns="http://www.w3.org/2000/svg"
 width="300.000000pt" height="300.000000pt" viewBox="0 0 300.000000 300.000000"
 preserveAspectRatio="xMidYMid meet">
<metadata>
Created by potrace 1.11, written by Peter Selinger 2001-2013
</metadata>
<g transform="translate(0.000000,300.000000) scale(0.100000,-0.100000)"
fill="#000000" stroke="none">
<path d="M10 2251 c-13 -25 -13 -211 0 -231 8 -13 48 -15 242 -17 128 -1 236
-2 241 -3 4 0 7 -281 7 -623 0 -592 1 -625 18 -640 15 -14 41 -17 134 -17 99
0 117 3 131 18 15 17 17 76 17 643 l0 624 233 -1 c197 -2 235 0 250 14 14 12
17 32 17 114 0 55 -5 108 -10 119 -10 18 -28 19 -640 19 -612 0 -630 -1 -640
-19z"/>
<path d="M1554 2262 c-17 -11 -23 -47 -38 -262 -13 -167 -17 -228 -21 -260 -2
-19 -7 -73 -10 -120 -3 -47 -8 -101 -10 -120 -2 -19 -7 -78 -10 -130 -4 -52
-8 -106 -10 -120 -2 -14 -7 -72 -10 -130 -4 -58 -9 -113 -11 -122 -1 -10 -6
-71 -10 -137 -6 -114 -6 -119 14 -130 26 -14 227 -15 252 -1 21 11 27 42 36
195 3 61 8 117 9 125 2 9 6 70 10 135 4 66 9 127 10 135 2 9 6 63 10 120 4 58
9 116 10 130 2 14 3 38 4 54 1 38 11 27 45 -54 16 -36 35 -78 42 -95 7 -16 55
-124 107 -240 51 -115 98 -219 104 -230 10 -17 23 -20 115 -20 57 -1 111 1
120 3 10 2 48 74 104 200 48 109 99 224 114 257 15 33 40 89 55 125 37 85 45
92 46 44 0 -21 2 -46 3 -54 2 -8 7 -60 10 -115 7 -97 9 -129 21 -265 3 -36 7
-94 10 -130 23 -298 24 -303 42 -317 21 -16 226 -18 255 -2 19 10 20 17 14
112 -4 56 -8 118 -11 137 -2 19 -6 76 -10 125 -4 50 -8 104 -10 120 -2 17 -6
71 -10 120 -3 50 -8 110 -10 135 -2 25 -7 77 -10 115 -2 39 -12 156 -20 260
-9 105 -18 224 -21 265 -11 157 -3 150 -165 150 -122 0 -129 -1 -143 -22 -8
-13 -58 -126 -111 -253 -54 -126 -134 -317 -180 -423 l-82 -193 -108 258 c-59
142 -118 281 -131 310 -13 28 -44 103 -69 165 -71 172 -53 158 -203 158 -70 0
-132 -4 -138 -8z"/>
</g>
</svg>
